<svg width="726" height="778" viewBox="0 0 726 778" fill="none" xmlns="http://www.w3.org/2000/svg">
<path fill-rule="evenodd" clip-rule="evenodd" d="M743 389C743 584.509 584.509 743 389 743C193.491 743 35 584.509 35 389C35 193.491 193.491 35 389 35C584.509 35 743 193.491 743 389ZM778 389C778 603.839 603.839 778 389 778C174.161 778 0 603.839 0 389C0 174.161 174.161 0 389 0C603.839 0 778 174.161 778 389ZM388.999 683.399C551.591 683.399 683.398 551.592 683.398 389C683.398 226.408 551.591 94.6006 388.999 94.6006C226.407 94.6006 94.5996 226.408 94.5996 389C94.5996 551.592 226.407 683.399 388.999 683.399ZM388.999 718.399C570.921 718.399 718.398 570.922 718.398 389C718.398 207.078 570.921 59.6006 388.999 59.6006C207.077 59.6006 59.5996 207.078 59.5996 389C59.5996 570.922 207.077 718.399 388.999 718.399ZM623.799 389C623.799 518.676 518.676 623.799 389 623.799C259.324 623.799 154.201 518.676 154.201 389C154.201 259.324 259.324 154.201 389 154.201C518.676 154.201 623.799 259.324 623.799 389ZM658.799 389C658.799 538.006 538.006 658.799 389 658.799C239.994 658.799 119.201 538.006 119.201 389C119.201 239.994 239.994 119.201 389 119.201C538.006 119.201 658.799 239.994 658.799 389ZM564.198 389C564.198 485.759 485.759 564.198 388.999 564.198C292.24 564.198 213.801 485.759 213.801 389C213.801 292.241 292.24 213.802 388.999 213.802C485.759 213.802 564.198 292.241 564.198 389ZM599.198 389C599.198 505.089 505.088 599.198 388.999 599.198C272.91 599.198 178.801 505.089 178.801 389C178.801 272.911 272.91 178.802 388.999 178.802C505.088 178.802 599.198 272.911 599.198 389ZM389 504.598C452.843 504.598 504.598 452.843 504.598 389C504.598 325.157 452.843 273.402 389 273.402C325.157 273.402 273.402 325.157 273.402 389C273.402 452.843 325.157 504.598 389 504.598ZM389 539.598C472.173 539.598 539.598 472.173 539.598 389C539.598 305.827 472.173 238.402 389 238.402C305.827 238.402 238.402 305.827 238.402 389C238.402 472.173 305.827 539.598 389 539.598ZM444.996 389C444.996 419.926 419.926 444.997 388.999 444.997C358.073 444.997 333.002 419.926 333.002 389C333.002 358.074 358.073 333.003 388.999 333.003C419.926 333.003 444.996 358.074 444.996 389ZM479.996 389C479.996 439.256 439.256 479.997 388.999 479.997C338.743 479.997 298.002 439.256 298.002 389C298.002 338.744 338.743 298.003 388.999 298.003C439.256 298.003 479.996 338.744 479.996 389Z" fill="url(#paint0_linear_2_233)"/>
<defs>
<linearGradient id="paint0_linear_2_233" x1="389" y1="0" x2="389" y2="778" gradientUnits="userSpaceOnUse">
<stop stop-color="#02B5EA"/>
<stop offset="1" stop-color="#02B5EA" stop-opacity="0.15"/>
</linearGradient>
</defs>
</svg>
