<svg width="36" height="36" viewBox="0 0 36 36" fill="none" xmlns="http://www.w3.org/2000/svg">
<circle cx="18" cy="18" r="18" fill="#182327"/>
<path d="M11.0762 12.6865C11.0762 12.2203 11.2399 11.8357 11.5673 11.5327C11.8948 11.2296 12.3205 11.0781 12.8444 11.0781C13.3589 11.0781 13.7752 11.2273 14.0933 11.5257C14.4208 11.8334 14.5845 12.2343 14.5845 12.7285C14.5845 13.176 14.4254 13.549 14.1074 13.8474C13.7799 14.155 13.3496 14.3089 12.8163 14.3089H12.8023C12.2877 14.3089 11.8714 14.155 11.5533 13.8474C11.2352 13.5397 11.0762 13.1527 11.0762 12.6865ZM11.2586 24.9243V15.5816H14.374V24.9243H11.2586ZM16.1001 24.9243H19.2155V19.7075C19.2155 19.3811 19.2529 19.1294 19.3277 18.9523C19.4587 18.6352 19.6575 18.3672 19.9241 18.1481C20.1908 17.9289 20.5252 17.8194 20.9275 17.8194C21.9753 17.8194 22.4992 18.5233 22.4992 19.9313V24.9243H25.6146V19.5676C25.6146 18.1877 25.2872 17.1411 24.6323 16.4278C23.9774 15.7145 23.112 15.3578 22.0362 15.3578C20.8293 15.3578 19.8891 15.8753 19.2155 16.9103V16.9383H19.2014L19.2155 16.9103V15.5816H16.1001C16.1188 15.88 16.1281 16.8077 16.1281 18.3648C16.1281 19.9219 16.1188 22.1084 16.1001 24.9243Z" fill="white"/>
</svg>
